# xmcd CD database file generated by OrangeCD 6.2
#
# Track frame offsets:
#	150
#	17032
#	36764
#	53270
#	68902
#	86636
#	101298
#	122433
#	139568
#	155909
#	169356
#	190619
#	207021
#	224949
#	238827
#	261655
#	277393
#	291199
#	306725
#	324087
#
# Disc length: 4509 seconds
#
# Revision: 1
# Processed by: cddbd v1.5.2PL0 Copyright (c) Steve Scherf et al.
# Submitted via: OrangeCD 6.2
#
DISCID=34119b14
DTITLE=Bonnie Raitt - Taking my time (1973) - Streetlights (1974)
DYEAR=1900
DGENRE=Blues
TTITLE0=You've Been In Love Too Long
TTITLE1=I Gave My Love A Candle
TTITLE2=Let Me In
TTITLE3=Everybody's Cryin' Mercy
TTITLE4=Cry Like A Rainstorm
TTITLE5=Wah She Go Do
TTITLE6=I Feel The Same
TTITLE7=I Thought I Was A Child
TTITLE8=Write Me A Few Of Your Lines/Kokomo Blues
TTITLE9=Guilty
TTITLE10=That Song About The Midway
TTITLE11=Rainy Day Man
TTITLE12=Angel From Montgomery
TTITLE13=I Got Plenty
TTITLE14=Streetlights
TTITLE15=What Is Success
TTITLE16=Ain't Nobody Home
TTITLE17=Everything That Touches You
TTITLE18=Got You On My Mind
TTITLE19=You Got To Be Ready For Love (If You Wanna Be Mine)
EXTD=
EXTT0=
EXTT1=
EXTT2=
EXTT3=
EXTT4=
EXTT5=
EXTT6=
EXTT7=
EXTT8=
EXTT9=
EXTT10=
EXTT11=
EXTT12=
EXTT13=
EXTT14=
EXTT15=
EXTT16=
EXTT17=
EXTT18=
EXTT19=
PLAYORDER=
